<svg width="105" height="104" viewBox="0 0 105 104" fill="none" xmlns="http://www.w3.org/2000/svg">
<g id="ph:coin-vertical-duotone">
<g id="Group">
<path id="Vector" opacity="0.2" d="M65.5 52C65.5 73.5312 55.3153 91 42.75 91C30.1847 91 20 73.5312 20 52C20 30.4688 30.1847 13 42.75 13C55.3153 13 65.5 30.4688 65.5 52Z" fill="url(#paint0_linear_373_1968)"/>
<path id="Vector_2" d="M81.1447 22.7866C76.2412 14.3812 69.53 9.75 62.25 9.75H42.75C35.47 9.75 28.7588 14.3812 23.8553 22.7866C19.2728 30.6394 16.75 41.0312 16.75 52C16.75 62.9688 19.2728 73.3606 23.8553 81.2134C28.7588 89.6188 35.47 94.25 42.75 94.25H62.25C69.53 94.25 76.2412 89.6188 81.1447 81.2134C85.7272 73.3606 88.25 62.9688 88.25 52C88.25 41.0312 85.7272 30.6394 81.1447 22.7866ZM81.6647 48.75H68.6647C68.4108 42.0808 67.0829 35.4963 64.7322 29.25H77.1594C79.6456 34.6856 81.2869 41.4375 81.6647 48.75ZM73.2959 22.75H61.6244C60.2669 20.395 58.63 18.2126 56.7494 16.25H62.25C66.3125 16.25 70.1313 18.6875 73.2959 22.75ZM23.25 52C23.25 32.6219 32.1875 16.25 42.75 16.25C53.3125 16.25 62.25 32.6219 62.25 52C62.25 71.3781 53.3125 87.75 42.75 87.75C32.1875 87.75 23.25 71.3781 23.25 52ZM62.25 87.75H56.7616C58.6422 85.7874 60.2791 83.605 61.6366 81.25H73.3081C70.1313 85.3125 66.3125 87.75 62.25 87.75ZM77.1594 74.75H64.7362C67.087 68.5037 68.4149 61.9192 68.6688 55.25H81.6688C81.2869 62.5625 79.6456 69.3144 77.1594 74.75Z" fill="url(#paint1_linear_373_1968)"/>
</g>
</g>
<defs>
<linearGradient id="paint0_linear_373_1968" x1="9.91762" y1="70.2213" x2="83.3918" y2="25.4392" gradientUnits="userSpaceOnUse">
<stop offset="0.00551257" stop-color="#6BC6F5"/>
<stop offset="0.437589" stop-color="#EE94ED"/>
<stop offset="0.744792" stop-color="#F5BC68"/>
<stop offset="0.992865" stop-color="#EFCA45"/>
</linearGradient>
<linearGradient id="paint1_linear_373_1968" x1="0.906252" y1="71.7398" x2="89.7857" y2="-6.83866" gradientUnits="userSpaceOnUse">
<stop offset="0.00551257" stop-color="#6BC6F5"/>
<stop offset="0.437589" stop-color="#EE94ED"/>
<stop offset="0.744792" stop-color="#F5BC68"/>
<stop offset="0.992865" stop-color="#EFCA45"/>
</linearGradient>
</defs>
</svg>
