<svg width="67" height="66" viewBox="0 0 67 66" fill="none" xmlns="http://www.w3.org/2000/svg">
<g id="Group 556" filter="url(#filter0_d_5901_1137)">
<circle id="Ellipse 166" cx="33.5001" cy="31.5001" r="29.5001" fill="url(#paint0_linear_5901_1137)"/>
<g id="Group 538">
<path id="Vector" d="M44.3507 28.0159C44.3742 26.525 44.0954 25.1988 43.5776 24.0845C43.0819 23.0081 42.3229 22.0741 41.3706 21.3688C40.4113 20.6691 39.3119 20.1852 38.148 19.9503C36.8812 19.6939 35.578 19.6727 34.3035 19.8878C32.9836 20.1028 31.7086 20.5353 30.5304 21.1678C29.383 21.7793 28.3434 22.5743 27.4526 23.5215C25.5974 25.4977 24.4512 28.0342 24.1938 30.7325C24.0625 32.0698 24.2063 33.4198 24.6165 34.6993C24.9968 35.8783 25.6479 36.9519 26.5175 37.8341C27.3962 38.7134 28.4663 39.3777 29.6442 39.7749C30.9295 40.2065 32.2912 40.3629 33.6408 40.2339C35.0609 40.1052 36.4407 39.6924 37.6981 39.02C38.9789 38.3285 40.1204 37.4056 41.0646 36.2979C42.0551 35.1464 42.8502 33.8403 43.4183 32.4317C43.9965 31.0292 44.3125 29.5325 44.3507 28.0159Z" fill="#5DF3A8"/>
<path id="Vector_2" opacity="0.75" d="M43.5759 24.086C43.0802 23.0096 42.3212 22.0756 41.3689 21.3702C40.4096 20.6705 39.3102 20.1866 38.1463 19.9517C37.5841 19.8351 37.0129 19.7676 36.439 19.7499C37.4147 19.8967 38.3626 20.19 39.2507 20.6198C40.2831 21.1242 41.1666 21.8885 41.8143 22.8376C42.4887 23.8252 42.9323 25.1007 43.0699 26.6052C43.1888 28.1643 42.9898 29.7312 42.4851 31.2111C41.9822 32.6889 41.1997 34.0562 40.1804 35.2384C39.2207 36.3632 38.0351 37.2734 36.7006 37.9098C35.4041 38.5181 33.9946 38.8484 32.5628 38.8793C32.2271 38.8826 31.8914 38.8684 31.5571 38.8368C30.3643 38.8466 29.1851 38.583 28.1099 38.0664C26.7747 37.4327 25.6794 36.1799 24.9027 34.9515C24.7418 34.6979 24.5947 34.4359 24.4619 34.1666C24.5089 34.3477 24.5614 34.5272 24.6194 34.7053C25.0001 35.8841 25.6511 36.9576 26.5204 37.8401C27.399 38.7194 28.4691 39.3836 29.647 39.7809C30.9323 40.2125 32.294 40.3689 33.6437 40.2399C35.0637 40.1112 36.4435 39.6983 37.7009 39.0259C38.9817 38.3345 40.1232 37.4116 41.0675 36.3039C42.0579 35.1524 42.853 33.8463 43.4211 32.4376C43.9981 31.0331 44.3123 29.5345 44.3481 28.0165C44.3725 26.5265 44.0937 25.2003 43.5759 24.086Z" fill="#318864"/>
<path id="Vector_3" d="M30.3417 51.2482C30.2809 51.2477 30.2203 51.2417 30.1606 51.2301C29.9133 51.1811 29.6955 51.0359 29.5551 50.8265C29.4148 50.617 29.3633 50.3604 29.412 50.113L31.332 40.246C31.4053 39.8169 31.8833 39.5498 32.4092 39.6195C32.9352 39.6892 33.3027 40.0921 33.2239 40.5456L31.2795 50.4796C31.237 50.6968 31.12 50.8924 30.9489 51.0327C30.7777 51.1729 30.563 51.2492 30.3417 51.2482Z" fill="#6B68E9"/>
<path id="Vector_4" d="M36.0899 19.744C36.7808 19.7425 37.47 19.8123 38.1466 19.9522C39.3105 20.1871 40.4098 20.671 41.3692 21.3707C42.3214 22.076 43.0805 23.0101 43.5762 24.0864C44.094 25.2008 44.3728 26.5306 44.3492 28.0179C44.3135 29.5359 43.9993 31.0345 43.4223 32.439C42.8542 33.8477 42.0591 35.1537 41.0687 36.3053C40.1244 37.4129 38.9829 38.3359 37.7021 39.0273C36.4447 39.6997 35.0649 40.1125 33.6448 40.2412C33.4982 40.2539 33.3533 40.263 33.2085 40.2702C33.2292 40.3609 33.2314 40.4548 33.2148 40.5463L31.2704 50.4804C31.2277 50.6961 31.1115 50.8905 30.9417 51.0303C30.7719 51.17 30.5589 51.2467 30.3389 51.2471C30.2781 51.2466 30.2175 51.2406 30.1579 51.229C29.9105 51.18 29.6927 51.0348 29.5524 50.8254C29.412 50.6159 29.3605 50.3593 29.4092 50.1119L31.3292 40.2449C31.3292 40.224 31.3383 40.2041 31.3437 40.1842C30.7683 40.1032 30.2018 39.968 29.6518 39.7805C28.4739 39.3832 27.4038 38.719 26.5251 37.8397C25.6558 36.9571 25.0049 35.8836 24.6242 34.7048C24.2147 33.4251 24.0712 32.0753 24.2023 30.7381C24.4451 28.0653 25.5695 25.5491 27.3986 23.5851C29.2277 21.6211 31.6578 20.3209 34.3066 19.8889C34.8977 19.7927 35.4955 19.744 36.0944 19.7431L36.0899 19.744ZM36.0944 19.0189C35.4576 19.0201 34.8219 19.0721 34.1934 19.1746C32.794 19.4016 31.4424 19.8606 30.1941 20.5325C28.9783 21.1827 27.8774 22.0279 26.9352 23.0345C24.9698 25.1279 23.7562 27.8153 23.4854 30.6738C23.3432 32.1095 23.4973 33.5592 23.938 34.9329C24.3532 36.2194 25.0644 37.3905 26.0146 38.352C26.9709 39.3109 28.1366 40.0348 29.4201 40.4667C29.7719 40.5871 30.1304 40.6875 30.4937 40.7672L28.7022 49.9734C28.6166 50.4082 28.7067 50.8592 28.9526 51.2278C29.1986 51.5964 29.5805 51.8527 30.0148 51.9405C30.1219 51.9614 30.2307 51.972 30.3398 51.9722C30.7273 51.9711 31.1026 51.836 31.4019 51.5899C31.7011 51.3437 31.9061 51.0016 31.9819 50.6216L33.8757 40.9473C35.3334 40.7945 36.7476 40.3601 38.0397 39.6682C39.4008 38.9355 40.6134 37.9556 41.6154 36.7787C42.659 35.5682 43.4955 34.1937 44.0912 32.7106C44.7036 31.224 45.0357 29.637 45.0707 28.0296C45.0951 26.4627 44.8118 25.0333 44.2297 23.7823C43.6844 22.5969 42.8476 21.5692 41.7974 20.795C40.7545 20.0325 39.5586 19.5053 38.2923 19.2498C37.5668 19.0998 36.8279 19.0249 36.0871 19.0262L36.0944 19.0189Z" fill="#171230"/>
<path id="Vector_5" d="M31.8372 44.4419L31.5539 44.4745L31.4959 44.4844C31.1827 44.5333 30.8704 44.5912 30.5581 44.6501L30.3771 44.6863L29.3207 50.1123C29.272 50.3596 29.3234 50.6163 29.4638 50.8257C29.6042 51.0352 29.822 51.1803 30.0693 51.2293C30.129 51.2409 30.1896 51.247 30.2503 51.2474C30.4703 51.247 30.6833 51.1704 30.8531 51.0306C31.023 50.8908 31.1391 50.6965 31.1818 50.4807L32.3749 44.3857C32.1957 44.4038 32.0155 44.422 31.8372 44.4419Z" fill="#38359D"/>
<path id="Vector_6" d="M37.5735 21.8896H37.5644C30.1804 21.5076 25.2641 28.1882 27.7227 33.3861C30.3334 38.3341 38.791 35.9569 39.0924 30.6839C39.097 30.358 39.0716 30.0503 39.0635 29.7361C39.0092 27.5572 36.3595 26.2791 34.4676 26.8394C33.0627 27.2703 32.2833 28.9558 32.6227 30.2684C32.7033 30.5798 33.088 30.5183 33.1279 30.1444C33.2184 29.2962 33.5805 28.4471 34.9048 28.3339C37.4223 28.3113 38.7457 34.2931 32.1357 33.7128C26.2173 31.9449 32.1575 21.3374 39.5107 25.5838C43.7092 27.7084 42.1902 33.1923 40.367 37.0514C40.6084 36.81 40.8423 36.5604 41.0686 36.3027C42.059 35.1512 42.8541 33.8451 43.4222 32.4365C43.4548 32.3559 43.4856 32.2753 43.5172 32.1939C44.3845 27.4658 42.7297 22.869 37.5735 21.8896Z" fill="#6C69EA"/>
<path id="Vector_7" d="M43.0074 26.062C43.0333 26.2388 43.0547 26.4199 43.0716 26.6052C43.1906 28.1642 42.9916 29.7311 42.4868 31.211C42.3379 31.6491 42.1638 32.0783 41.9654 32.4964C41.6395 34.0706 41.024 35.6647 40.3695 37.0525C40.4899 36.9339 40.6076 36.8117 40.7244 36.6904L40.7298 36.684C40.8457 36.5633 40.9591 36.4375 41.0702 36.3066C42.0606 35.155 42.8557 33.849 43.4238 32.4403C43.4564 32.3597 43.4871 32.2792 43.5188 32.1977C43.9198 30.0061 43.7813 27.8471 43.0074 26.062Z" fill="#38359D"/>
<path id="Vector_8" d="M41.2312 26.9966C40.5975 25.5238 39.3673 24.3388 37.7913 23.9188C35.8215 23.3929 33.5494 23.8446 31.7652 24.7679C29.9393 25.7139 28.6611 27.5651 28.6113 29.6453C28.5823 30.8348 29.0187 31.8722 29.8443 32.7168C30.2055 33.0892 30.6533 33.3663 31.1478 33.5233C31.3667 33.5868 31.5943 33.6152 31.8222 33.6075C26.4496 31.5545 32.3038 21.4213 39.5167 25.5881C40.1904 25.9172 40.7776 26.3996 41.2312 26.9966Z" fill="#38359D"/>
<path id="Vector_9" d="M27.7267 33.3828C30.3374 38.3308 38.795 35.9537 39.0964 30.6807C39.101 30.3548 39.0756 30.047 39.0675 29.7329C39.0478 29.0802 38.7936 28.4564 38.3514 27.9758C38.323 28.0334 38.3093 28.0972 38.3116 28.1614C38.3225 28.9155 38.4746 29.6632 38.4718 30.4453C38.4718 31.1976 38.3949 31.9453 38.0192 32.559C37.4145 33.5077 36.5057 34.3233 35.394 34.7253C34.1946 35.1399 33.0821 35.3426 31.8881 35.2023C30.8606 35.0819 29.8966 34.6094 29.0583 33.9449C28.5985 33.5779 28.1741 33.1685 27.791 32.722C27.6217 32.5264 27.4461 32.3246 27.2795 32.1146C27.3852 32.5514 27.535 32.9763 27.7267 33.3828Z" fill="#38359D"/>
<path id="Vector_10" d="M29.6655 24.7937C29.5305 24.7523 29.3857 24.7564 29.2533 24.8055C29.1209 24.8546 29.0084 24.9459 28.9331 25.0653L28.9141 25.1033L28.9041 25.1114C28.8339 25.1563 28.7765 25.2187 28.7376 25.2925C28.6508 25.4436 28.6271 25.6228 28.6715 25.7913C28.717 25.954 28.8237 26.0929 28.9693 26.1787C29.1217 26.2626 29.3002 26.2859 29.469 26.2439C29.5904 26.2176 29.7059 26.1687 29.8094 26.1C29.9208 26.028 30.0138 25.931 30.0809 25.8166C30.1456 25.7017 30.1793 25.5719 30.1787 25.44C30.1737 25.2915 30.1211 25.1486 30.0287 25.0322C29.9363 24.9158 29.809 24.8322 29.6655 24.7937Z" fill="white"/>
<path id="Vector_11" d="M32.7792 22.0982C32.3266 22.0864 31.778 22.2304 31.4712 22.5888C31.3123 22.6921 31.1839 22.8358 31.0991 23.0052C30.8565 23.523 31.0593 24.0445 31.6024 24.2409C32.4171 24.5351 33.3867 23.9784 33.5768 23.1456C33.6084 23.0229 33.6118 22.8946 33.5867 22.7704C33.5616 22.6462 33.5087 22.5293 33.4319 22.4285C33.3552 22.3277 33.2566 22.2456 33.1435 22.1884C33.0305 22.1312 32.9059 22.1003 32.7792 22.0982Z" fill="white"/>
</g>
<g id="Group 556_2" filter="url(#filter1_d_5901_1137)">
<path id="Vector_12" d="M17.6669 17.0319C17.7121 16.9999 17.8272 16.9343 18.0135 16.8361C18.1008 16.793 18.167 16.7554 18.2122 16.7234C18.4884 16.5266 18.4923 16.195 18.2239 15.7296C18.0706 15.466 17.5808 14.7564 16.7552 13.5986C16.6299 13.4229 16.5069 13.327 16.3871 13.3098C16.2672 13.2925 16.1124 13.3517 15.9235 13.4859C15.8783 13.5179 15.8169 13.5701 15.739 13.6392C15.6787 13.6923 15.624 13.7362 15.5747 13.7708C15.4643 13.8499 15.3533 13.8837 15.2427 13.872C15.131 13.8603 15.0407 13.8063 14.9716 13.7089C14.8974 13.6044 14.8757 13.465 14.9073 13.2884C14.9378 13.1119 15.0184 12.918 15.1481 12.7079C15.7893 11.6616 16.6292 10.769 17.6655 10.0292C17.9486 9.82725 18.1777 9.71457 18.3535 9.68889C18.5294 9.66427 18.6691 9.72478 18.7738 9.8703C18.8339 9.95466 18.8601 10.0362 18.8511 10.113C18.8423 10.1908 18.7949 10.302 18.707 10.448C18.5677 10.6797 18.5289 10.869 18.5905 11.0171C18.6521 11.1651 18.9816 11.6747 19.5802 12.5477C20.2274 13.4003 20.5748 13.856 20.6225 13.9157C20.6701 13.9754 20.7445 14.0517 20.8458 14.1468C21.0077 14.2914 21.1653 14.3576 21.3189 14.3462C21.4724 14.3349 21.6893 14.2398 21.9684 14.0599C22.2837 13.8545 22.5258 13.8713 22.6946 14.1084C22.8709 14.3554 22.7703 14.6727 22.3936 15.0591C21.8688 15.5958 21.2895 16.0899 20.6559 16.5422C20.2402 16.8387 19.8288 17.0957 19.4237 17.311C18.9127 17.5778 18.4948 17.7555 18.1711 17.8439C17.856 17.9313 17.6333 17.8842 17.503 17.7025C17.4339 17.605 17.4139 17.4914 17.4441 17.3615C17.4743 17.2315 17.548 17.1228 17.666 17.0342L17.6669 17.0319Z" fill="white"/>
<path id="Vector_13" d="M23.8029 11.5695C24.1528 11.4231 24.5071 11.4169 24.8671 11.5518C25.2318 11.6895 25.4965 11.9529 25.6592 12.3432C25.8116 12.7075 25.81 13.0703 25.6535 13.4305C25.4981 13.7819 25.2449 14.0303 24.895 14.1768C24.5452 14.3232 24.1908 14.3294 23.8308 14.1945C23.4648 14.0537 23.2028 13.7954 23.0449 13.4198C22.884 13.0369 22.8839 12.6689 23.0434 12.3159C23.2003 11.9687 23.4536 11.7202 23.8019 11.5696L23.8029 11.5695Z" fill="white"/>
<path id="Vector_14" d="M27.3772 10.3826C27.7449 10.2905 28.0965 10.3387 28.4319 10.5261C28.7721 10.7174 28.9932 11.018 29.0953 11.4278C29.1913 11.8113 29.1341 12.1694 28.9257 12.5017C28.7186 12.8252 28.4307 13.033 28.063 13.1251C27.6953 13.2172 27.3436 13.169 27.0082 12.9816C26.6677 12.7871 26.4471 12.4919 26.3488 12.0968C26.2486 11.6942 26.303 11.33 26.5144 11.0061C26.7231 10.6867 27.0099 10.479 27.3772 10.3826Z" fill="white"/>
<path id="Vector_15" d="M31.0982 9.74692C31.4754 9.71224 31.8165 9.81246 32.1183 10.049C32.4249 10.2894 32.5985 10.6201 32.6379 11.0411C32.6744 11.4344 32.5638 11.7798 32.3072 12.0762C32.0529 12.3649 31.7371 12.526 31.3599 12.5606C30.9817 12.5954 30.6417 12.4951 30.3398 12.2585C30.0328 12.0139 29.8599 11.6896 29.8221 11.2836C29.7834 10.87 29.8934 10.5192 30.1509 10.2302C30.4056 9.94592 30.7214 9.78481 31.0981 9.74585L31.0982 9.74692Z" fill="white"/>
<path id="Vector_16" d="M40.1331 13.3001L36.1899 12.2585C35.8422 12.1666 35.6944 12.0225 35.7465 11.8252C35.7734 11.7249 35.8347 11.6414 35.9312 11.5735C36.0277 11.5056 36.3263 11.3366 36.8281 11.0643C37.7589 10.5589 38.4838 10.0501 39.0027 9.53884C39.2698 9.27914 39.4328 9.03729 39.4917 8.81331C39.5432 8.62044 39.527 8.45227 39.4453 8.30858C39.3636 8.16489 39.2275 8.06826 39.0391 8.01847C38.8619 7.97179 38.72 7.96023 38.6143 7.98367C38.5086 8.00711 38.2623 8.11085 37.8753 8.2938C37.7722 8.34077 37.6505 8.34648 37.5123 8.30962C37.3306 8.26126 37.1829 8.14751 37.0668 7.96644C36.9518 7.78525 36.9155 7.6117 36.9601 7.44555C37 7.29508 37.1144 7.14297 37.3042 6.98804C37.494 6.8331 37.7243 6.70189 37.9969 6.59203C38.9894 6.21419 39.9921 6.15884 41.0074 6.42683C41.7797 6.63044 42.3794 6.94813 42.8063 7.37885C42.9986 7.57432 43.1317 7.81198 43.2067 8.09171C43.2816 8.37145 43.2833 8.64509 43.2128 8.91148C43.0343 9.58687 42.3736 10.1969 41.2305 10.7417C40.8249 10.9321 40.6037 11.0969 40.5668 11.2352C40.5386 11.3432 40.5641 11.4487 40.6445 11.5503C40.7249 11.6519 40.8364 11.722 40.9791 11.7595C41.319 11.849 41.6565 11.7981 41.9927 11.6056C42.1619 11.5102 42.2728 11.4548 42.3241 11.4395C42.3755 11.4241 42.4397 11.4269 42.5177 11.4476C42.8576 11.5371 42.9505 11.8722 42.7982 12.4506C42.7216 12.7404 42.5896 13.0189 42.4003 13.2874C42.2121 13.5558 41.9944 13.7733 41.7484 13.9387C41.4865 14.1178 41.2363 14.1754 40.9966 14.1117C40.8997 14.0866 40.8282 14.0457 40.781 13.9902C40.7338 13.9348 40.6879 13.8413 40.6443 13.7097C40.6034 13.5832 40.5527 13.4956 40.4933 13.4469C40.4338 13.3982 40.3138 13.3496 40.1322 13.3023L40.1331 13.3001Z" fill="white"/>
<path id="Vector_17" d="M45.0648 12.5107C45.4001 12.6873 45.6299 12.9577 45.7541 13.3219C45.8799 13.6913 45.8435 14.0622 45.6463 14.4366C45.4614 14.7858 45.1812 15.0145 44.8034 15.1228C44.4335 15.2249 44.0799 15.1877 43.7445 15.0111C43.4092 14.8345 43.1794 14.5641 43.0553 14.1999C42.9312 13.827 42.9648 13.4608 43.155 13.1012C43.3487 12.7337 43.6328 12.5003 44.006 12.399C44.374 12.3003 44.7266 12.3376 45.0648 12.5107Z" fill="white"/>
<path id="Vector_18" d="M48.2512 14.5136C48.5561 14.739 48.7428 15.0411 48.8111 15.419C48.88 15.8022 48.7887 16.165 48.5379 16.5052C48.3031 16.8231 47.9909 17.0076 47.6012 17.0566C47.2198 17.1026 46.8766 17.0124 46.5717 16.787C46.2667 16.5616 46.0801 16.2594 46.0118 15.8815C45.9447 15.4949 46.0323 15.1379 46.2746 14.8094C46.5217 14.4751 46.8367 14.287 47.2215 14.2428C47.6001 14.2004 47.9432 14.2896 48.2511 14.5125L48.2512 14.5136Z" fill="white"/>
<path id="Vector_19" d="M51.1023 16.9733C51.3698 17.2417 51.5093 17.5685 51.5208 17.9515C51.532 18.341 51.3867 18.6859 51.0881 18.9848C50.808 19.2643 50.4721 19.3995 50.0793 19.3904C49.6948 19.3783 49.3689 19.2385 49.1015 18.97C48.834 18.7016 48.6945 18.3748 48.6828 17.9907C48.6747 17.5987 48.8151 17.2587 49.1029 16.9707C49.3967 16.6778 49.7376 16.5378 50.1245 16.5529C50.506 16.5676 50.8319 16.7073 51.1023 16.9733Z" fill="white"/>
</g>
<g id="Group 558" filter="url(#filter2_d_5901_1137)">
<path id="Vector_20" d="M19.7894 28.9859L20.171 34.4093C20.2317 34.9911 20.349 35.5166 20.5203 35.9873C20.5892 36.1898 20.6291 36.3689 20.6403 36.527C20.6798 37.0832 20.305 37.652 19.5188 38.2346C18.7326 38.8172 17.9032 39.1388 17.0321 39.2005C16.4351 39.2429 15.9864 39.0906 15.6864 38.7475C15.4613 38.4869 15.3348 38.1655 15.3079 37.7807C15.2819 37.417 15.3611 37.0941 15.5454 36.8119C15.7284 36.53 16.0448 36.242 16.4936 35.9496C16.9023 35.6932 17.1684 35.4954 17.2892 35.3554C17.41 35.2153 17.4647 35.0529 17.4521 34.8684C17.4335 34.6141 17.3145 34.4406 17.0948 34.3454C16.8738 34.2503 16.5202 34.2209 16.0338 34.2544L10.2703 34.6595C9.67991 34.7012 9.25539 34.7933 8.99663 34.9345C8.73801 35.077 8.5487 35.3238 8.42764 35.6777C8.2962 36.0591 8.16424 36.3212 8.03321 36.465C7.90217 36.6088 7.71279 36.6896 7.46624 36.706C6.97196 36.7404 6.58131 36.432 6.29414 35.7796C6.00856 35.1296 5.81599 34.1115 5.71773 32.7251C5.59852 31.0235 5.65029 29.7516 5.87302 28.9092C6.05783 28.1995 6.41058 27.8268 6.93244 27.7896C7.21314 27.7696 7.44223 27.8784 7.61682 28.1138C7.65492 28.1735 7.75542 28.4113 7.91569 28.8274C8.00877 29.0832 8.16587 29.2527 8.38579 29.3372C8.60571 29.4218 9.01878 29.4743 9.62747 29.4931C10.1669 29.5098 11.0356 29.5014 12.2373 29.4649C13.4377 29.4286 14.4775 29.3798 15.3553 29.3187C15.9721 29.2755 16.4087 29.1968 16.6623 29.0827C16.9159 28.9686 17.0351 28.8008 17.0203 28.5819C17.0016 28.3144 16.7912 28.0668 16.3892 27.8406C15.6573 27.4298 15.1673 27.0853 14.9204 26.8057C14.6283 26.4751 14.4704 26.145 14.4479 25.8155C14.4212 25.4452 14.5397 25.1301 14.8007 24.8705C15.0602 24.6098 15.4075 24.4647 15.8397 24.4328C16.2654 24.403 16.7406 24.4662 17.2641 24.6227C17.7876 24.7791 18.2783 25.0027 18.7337 25.2951C19.4706 25.7665 19.8564 26.2573 19.8921 26.7647C19.9011 26.9018 19.8925 27.0607 19.8637 27.2429C19.8139 27.6185 19.7836 27.9257 19.7727 28.1645C19.7618 28.4033 19.7677 28.6762 19.7894 28.9859Z" fill="white"/>
<path id="Vector_21" d="M20.8961 42.5636C21.1563 42.8179 21.28 43.0108 21.2642 43.1399C21.2485 43.269 21.0686 43.5546 20.7229 43.9956C20.5356 44.2356 20.5069 44.4191 20.6341 44.5439C20.7331 44.6398 20.8959 44.66 21.1237 44.6043C22.118 44.3744 22.9323 44.5695 23.5665 45.1884C24.0144 45.6262 24.2382 46.1286 24.2405 46.6979C24.2389 46.9756 24.1727 47.2693 24.043 47.5789C23.9135 47.8898 23.7466 48.1475 23.5451 48.3544C23.3196 48.585 23.0336 48.7702 22.6868 48.9073C22.34 49.0444 22.0041 49.1087 21.679 49.0975C21.0714 49.0892 20.5379 48.8621 20.0811 48.4159C19.8299 48.1713 19.663 47.9206 19.5793 47.6664C19.4957 47.4123 19.4489 47.0149 19.4378 46.4757C19.4351 46.2715 19.3907 46.1261 19.302 46.0398C19.1645 45.9055 18.9988 45.8949 18.8063 46.0093C18.6137 46.1236 18.2738 46.4286 17.788 46.9254C17.0623 47.6676 16.5935 48.2012 16.3843 48.5244C16.2745 48.7058 16.2223 48.8546 16.2291 48.9707C16.2346 49.087 16.3099 49.2743 16.4548 49.53C16.7673 50.0948 16.7636 50.5426 16.4409 50.8724C16.2442 51.0735 16.0004 51.1799 15.7108 51.1915C15.4211 51.2019 15.1347 51.1163 14.8503 50.9349C14.2827 50.5719 13.5399 49.9431 12.6248 49.0496C11.7541 48.1992 11.1674 47.4758 10.8637 46.8808C10.5944 46.3487 10.626 45.9139 10.9583 45.5739C11.2077 45.3181 11.58 45.2341 12.071 45.321C12.3055 45.3668 12.4859 45.3785 12.6148 45.3545C12.7439 45.3317 12.8827 45.2628 13.0315 45.149C13.5477 44.7778 14.3973 43.9881 15.5786 42.7775C15.7945 42.5558 15.9255 42.3735 15.9702 42.2294C16.0149 42.0854 15.9915 41.9126 15.9025 41.7081C15.6878 41.2287 15.7076 40.8588 15.9632 40.5985C16.1934 40.362 16.5125 40.277 16.919 40.3434C17.3256 40.4098 17.8934 40.6347 18.6227 41.0205C19.6017 41.5344 20.3591 42.0488 20.8946 42.5624L20.8961 42.5636Z" fill="white"/>
<path id="Vector_22" d="M34.2506 53.7278L29.4505 53.0473C29.239 53.0176 29.1208 53.0936 29.0949 53.2782C29.0323 53.7215 29.2135 54.1726 29.6385 54.6314C30.0635 55.0916 30.5509 55.3593 31.1021 55.4385C31.4296 55.4853 31.8001 55.4732 32.2163 55.4032C32.6325 55.3332 32.9823 55.225 33.2684 55.0783C33.523 54.9482 33.7189 54.8919 33.855 54.9109C34.0316 54.9362 34.1902 55.0697 34.3296 55.3114C34.469 55.5531 34.523 55.7904 34.4901 56.0222C34.4205 56.5127 34.0471 56.942 33.3701 57.3114C32.1721 57.9688 30.8656 58.1968 29.4493 57.9955C28.0195 57.7929 26.8791 57.2083 26.0306 56.2401C25.6186 55.7653 25.2997 55.2158 25.0754 54.594C24.7821 53.7682 24.6971 52.9287 24.8167 52.0772C24.9787 50.9331 25.4713 49.9537 26.2958 49.1401C27.0068 48.4352 27.8527 47.9539 28.8337 47.6975C29.5702 47.5038 30.3426 47.463 31.1525 47.5776C32.4462 47.7612 33.4938 48.2838 34.2956 49.148C34.6992 49.5799 35.0051 50.0684 35.2132 50.6122C35.4516 51.2299 35.5335 51.8108 35.4562 52.3553C35.3936 52.7986 35.2509 53.1481 35.0267 53.4038C34.8026 53.6609 34.5442 53.7675 34.2518 53.7263L34.2506 53.7278ZM29.9866 51.1751L31.0188 51.3209C31.4541 51.383 31.7005 51.2126 31.7582 50.8109C31.8101 50.4431 31.7467 50.1284 31.5693 49.8668C31.3907 49.6053 31.1316 49.4504 30.7907 49.4024C30.4093 49.3479 30.0886 49.4558 29.8286 49.7245C29.5851 49.9743 29.4432 50.2427 29.4027 50.5284C29.3736 50.7332 29.4025 50.8829 29.4895 50.9787C29.5765 51.0745 29.7426 51.1395 29.9879 51.1749L29.9866 51.1751Z" fill="white"/>
<path id="Vector_23" d="M41.9306 45.2668C42.9674 44.6687 43.9974 44.4244 45.0204 44.5327C45.563 44.5929 46.0146 44.7595 46.3737 45.0327C46.7341 45.3058 47.0959 45.7579 47.4592 46.3891L48.2087 47.7314C48.742 48.6556 49.1522 49.2155 49.4411 49.4137C49.5822 49.5065 49.6935 49.5546 49.7732 49.5556C49.853 49.5566 49.9976 49.5176 50.2057 49.4374C50.4137 49.3573 50.5817 49.4274 50.7082 49.6478C50.8734 49.9333 50.9301 50.2978 50.8793 50.7399C50.8285 51.182 50.6823 51.6128 50.4391 52.0298C50.1428 52.5493 49.7505 52.9501 49.2622 53.2321C48.636 53.5922 48.0181 53.6633 47.4071 53.4443C47.1927 53.3618 47.0322 53.3507 46.9244 53.4124C46.8054 53.4806 46.69 53.6466 46.5793 53.9091C46.2344 54.6872 45.6832 55.2958 44.9268 55.7318C44.1467 56.1824 43.4185 56.3792 42.7436 56.3235C42.3001 56.2848 41.8843 56.1424 41.4958 55.8935C41.1062 55.6461 40.8008 55.3275 40.5772 54.9406C40.2204 54.3206 40.1535 53.6293 40.3803 52.8634C40.7276 51.6629 41.6772 50.6105 43.2292 49.7076C43.5748 49.5083 43.7719 49.3483 43.8218 49.2289C43.8718 49.1095 43.8244 48.9233 43.6803 48.6741C43.3157 48.043 42.9864 47.6234 42.6927 47.4164C42.3989 47.2094 42.1023 47.1912 41.8042 47.3631C41.6252 47.4667 41.4969 47.6116 41.4184 47.8003C41.3397 47.9878 41.2791 48.2849 41.2353 48.6917C41.1417 49.7543 40.8056 50.4519 40.2271 50.7857C39.9354 50.9543 39.6473 51.0056 39.3628 50.9384C39.0785 50.8725 38.8559 50.6992 38.6939 50.4187C38.5287 50.1333 38.4785 49.78 38.5437 49.3617C38.6076 48.9434 38.7751 48.513 39.045 48.072C39.794 46.8786 40.7545 45.9432 41.9278 45.2658L41.9306 45.2668ZM44.315 50.7865C44.0533 50.9373 43.8871 51.1764 43.8175 51.5023C43.748 51.8282 43.7991 52.1401 43.9697 52.4383C44.1349 52.7238 44.3367 52.9151 44.5752 53.0124C44.8138 53.1096 45.0456 53.092 45.2723 52.9622C45.7494 52.6867 45.7556 52.1483 45.2918 51.3431C45.1023 51.015 44.942 50.8153 44.8081 50.7404C44.6741 50.6654 44.5099 50.6825 44.3163 50.7864L44.315 50.7865Z" fill="white"/>
<path id="Vector_24" d="M51.8507 37.2798L55.0279 38.7179C55.4041 38.8884 55.7528 38.9343 56.074 38.857C56.3951 38.7797 56.6217 38.5967 56.7523 38.3096C56.8636 38.0656 56.8963 37.6918 56.8517 37.188C56.8392 37.0684 56.852 36.9622 56.8952 36.8674C56.9631 36.717 57.1163 36.62 57.3549 36.5778C57.5933 36.5343 57.8191 36.5612 58.0323 36.6571C58.421 36.833 58.6972 37.2144 58.8621 37.8026C59.2179 39.036 59.1093 40.2847 58.5364 41.55C58.0822 42.5533 57.4346 43.2303 56.5923 43.5811C55.75 43.9319 54.8663 43.898 53.9383 43.4784L49.5963 41.514C49.4528 41.4493 49.3548 41.4264 49.305 41.4449C49.2551 41.4633 49.1972 41.5451 49.1327 41.6899L48.6948 42.6583C48.6129 42.8408 48.5306 42.9423 48.448 42.9655C48.3655 42.9887 48.2155 42.9513 47.9954 42.8521L47.5815 42.6643C47.3968 42.5734 47.2911 42.4384 47.2659 42.2605L46.5067 36.7304C46.4983 36.5986 46.5297 36.4545 46.6009 36.2971L46.945 35.5363C47.0163 35.3801 47.0999 35.2904 47.196 35.2698C47.292 35.2491 47.4474 35.2873 47.6592 35.3834L48.9286 35.9572C49.1167 36.0424 49.2522 36.0681 49.3349 36.0343C49.4177 36.0004 49.504 35.8865 49.5912 35.6915L50.3776 33.9525C50.4822 33.7212 50.5933 33.5901 50.7081 33.5582C50.8244 33.5275 51.0192 33.5749 51.2952 33.7001L51.8498 33.9515C52.1508 34.0874 52.3391 34.2257 52.4149 34.3665C52.4907 34.5073 52.4769 34.6933 52.3722 34.9246L51.6019 36.6261C51.522 36.8017 51.5001 36.9354 51.5348 37.026C51.5695 37.1167 51.6741 37.2027 51.8496 37.2813L51.8507 37.2798Z" fill="white"/>
<path id="Vector_25" d="M46.5323 29.8281C46.5043 29.2163 46.7013 28.6873 47.1209 28.2425C47.672 27.646 48.4775 27.3243 49.5346 27.2763C50.2349 27.2444 50.9955 27.3322 51.8137 27.5389C52.632 27.7469 53.366 28.038 54.0174 28.4148C54.7524 28.8426 55.1267 29.1978 55.1402 29.4792C55.1529 29.754 54.7137 30.1636 53.8224 30.7054C53.166 31.1072 52.4579 31.4334 51.6982 31.6852C50.9385 31.9371 50.2388 32.0766 49.6006 32.106C48.817 32.1413 48.1539 31.9955 47.6088 31.67C46.9294 31.267 46.5707 30.6539 46.5338 29.8293L46.5323 29.8281ZM56.2682 29.3349C56.2417 28.7376 56.4407 28.2149 56.8682 27.7694C57.2889 27.3232 57.794 27.0872 58.3846 27.0601C58.9964 27.0321 59.5333 27.2283 59.9966 27.6473C60.4599 28.0662 60.7049 28.5823 60.733 29.1941C60.7595 29.7914 60.5803 30.3133 60.1951 30.7571C59.7766 31.2376 59.2443 31.4923 58.5981 31.5213C58.0007 31.5478 57.4869 31.3691 57.0562 30.9826C56.5611 30.551 56.2993 30.0021 56.2682 29.3349Z" fill="white"/>
</g>
</g>
<defs>
<filter id="filter0_d_5901_1137" x="0.75" y="0.375" width="65.5002" height="65.5002" filterUnits="userSpaceOnUse" color-interpolation-filters="sRGB">
<feFlood flood-opacity="0" result="BackgroundImageFix"/>
<feColorMatrix in="SourceAlpha" type="matrix" values="0 0 0 0 0 0 0 0 0 0 0 0 0 0 0 0 0 0 127 0" result="hardAlpha"/>
<feOffset dy="1.625"/>
<feGaussianBlur stdDeviation="1.625"/>
<feColorMatrix type="matrix" values="0 0 0 0 0 0 0 0 0 0 0 0 0 0 0 0 0 0 0.25 0"/>
<feBlend mode="normal" in2="BackgroundImageFix" result="effect1_dropShadow_5901_1137"/>
<feBlend mode="normal" in="SourceGraphic" in2="effect1_dropShadow_5901_1137" result="shape"/>
</filter>
<filter id="filter1_d_5901_1137" x="14.8932" y="6.26013" width="37.7629" height="14.2654" filterUnits="userSpaceOnUse" color-interpolation-filters="sRGB">
<feFlood flood-opacity="0" result="BackgroundImageFix"/>
<feColorMatrix in="SourceAlpha" type="matrix" values="0 0 0 0 0 0 0 0 0 0 0 0 0 0 0 0 0 0 127 0" result="hardAlpha"/>
<feOffset dx="1.13462" dy="1.13462"/>
<feComposite in2="hardAlpha" operator="out"/>
<feColorMatrix type="matrix" values="0 0 0 0 0 0 0 0 0 0 0 0 0 0 0 0 0 0 0.55 0"/>
<feBlend mode="normal" in2="BackgroundImageFix" result="effect1_dropShadow_5901_1137"/>
<feBlend mode="normal" in="SourceGraphic" in2="effect1_dropShadow_5901_1137" result="shape"/>
</filter>
<filter id="filter2_d_5901_1137" x="5.6554" y="24.4257" width="56.2147" height="34.7752" filterUnits="userSpaceOnUse" color-interpolation-filters="sRGB">
<feFlood flood-opacity="0" result="BackgroundImageFix"/>
<feColorMatrix in="SourceAlpha" type="matrix" values="0 0 0 0 0 0 0 0 0 0 0 0 0 0 0 0 0 0 127 0" result="hardAlpha"/>
<feOffset dx="1.13462" dy="1.13462"/>
<feComposite in2="hardAlpha" operator="out"/>
<feColorMatrix type="matrix" values="0 0 0 0 0 0 0 0 0 0 0 0 0 0 0 0 0 0 0.55 0"/>
<feBlend mode="normal" in2="BackgroundImageFix" result="effect1_dropShadow_5901_1137"/>
<feBlend mode="normal" in="SourceGraphic" in2="effect1_dropShadow_5901_1137" result="shape"/>
</filter>
<linearGradient id="paint0_linear_5901_1137" x1="-8.52519" y1="67.8485" x2="75.2341" y2="61.0103" gradientUnits="userSpaceOnUse">
<stop stop-color="#5352B5"/>
<stop offset="0.883537" stop-color="#9F7DDB"/>
</linearGradient>
</defs>
</svg>
