<svg xmlns="http://www.w3.org/2000/svg" width="24" height="24" viewBox="0 0 24 24" fill="none">
  <mask id="mask0_1175_3421" style="mask-type:alpha" maskUnits="userSpaceOnUse" x="0" y="0" width="24" height="24">
    <rect width="24" height="24" fill="#EC0FFF"/>
  </mask>
  <g mask="url(#mask0_1175_3421)">
    <path d="M23.5636 12.2549C23.5636 11.4743 23.4673 10.8888 23.3709 10.2545H12V14.4017H18.7455C18.6002 15.4901 17.8945 17.1638 16.322 18.3214C17.7818 19.2176 18.7455 20.2737 19.9466 21.1636C22.2336 19.0636 23.5636 15.9509 23.5636 12.2549Z" fill="#3B7DED"/>
    <path d="M16.4371 18.2272C15.3984 18.9938 13.9826 19.5353 12.102 19.5353C8.78327 19.5353 5.96924 17.2938 5.0105 14.1818C4.30128 14.8801 2.20877 16.4732 1.30908 17.1701C3.24097 21.2304 7.32425 24 12.102 24C15.3262 24 18.0665 22.9321 20.0727 21.0853C18.9474 20.1904 17.9012 19.1284 16.4371 18.2272Z" fill="#2BA24C"/>
    <path d="M4.94394 14.2745C4.71362 13.5411 4.58928 12.7588 4.58928 11.946C4.58928 11.0107 4.7426 10.1452 5.01818 9.35908C3.699 8.12446 2.11371 7.07181 1.26949 6.54546C0.456204 8.17002 0 10.0043 0 11.946C0 13.8493 0.432009 15.6431 1.20469 17.2364C2.64214 16.0194 3.699 15.493 4.94394 14.2745Z" fill="#F0B501"/>
    <path d="M5.0223 9.38182C6.72202 4.53391 13.1174 2.73371 16.7842 6.26092L20.0727 3.13046C17.9932 1.20402 15.2367 0 12.0449 0C7.31632 0 3.26751 2.6838 1.30908 6.59522C2.14533 7.1165 3.71569 8.15904 5.0223 9.38182Z" fill="#E43E2B"/>
  </g>
</svg>