<svg width="365" height="64" viewBox="0 0 365 64" fill="none" xmlns="http://www.w3.org/2000/svg">
<g clip-path="url(#clip0_373_1093)">
<mask id="mask0_373_1093" style="mask-type:luminance" maskUnits="userSpaceOnUse" x="0" y="0" width="365" height="64">
<path d="M364.136 0H0.863892V64H364.136V0Z" fill="white"/>
</mask>
<g mask="url(#mask0_373_1093)">
<path d="M58.9874 24.3605C60.0558 22.3304 61.7654 20.6209 63.7954 19.5525C65.7186 18.5909 67.8555 18.1635 69.9924 18.3772C70.2061 18.3772 70.5266 18.484 70.6335 18.6977C70.7403 18.9114 70.954 19.1251 70.954 19.4456V28.6343C70.954 28.7411 70.954 28.9548 70.8472 29.0616C70.7403 29.1685 70.7403 29.2753 70.6335 29.489C70.5266 29.5959 70.4198 29.7027 70.2061 29.7027C70.0993 29.7027 69.8856 29.8096 69.7787 29.7027C66.2528 29.2753 63.6886 29.9164 61.8722 31.6259C59.949 33.5491 58.9874 36.8613 58.9874 41.6693V56.8413C58.9874 57.1618 58.8806 57.3755 58.6669 57.5892C58.4532 57.8029 58.2395 57.9097 57.919 57.9097H47.9824C47.6619 57.9097 47.4482 57.8029 47.2345 57.5892C47.0208 57.3755 46.9139 57.1618 46.9139 56.8413V20.1935C46.9139 19.873 47.0208 19.6593 47.2345 19.4456C47.4482 19.2319 47.6619 19.1251 47.9824 19.1251H57.8121C58.1326 19.1251 58.3463 19.2319 58.56 19.4456C58.7737 19.6593 58.8806 19.873 58.8806 20.1935L58.9874 24.3605Z" fill="white"/>
<path d="M93.8188 59.2987C87.5149 59.2987 82.4932 57.3755 78.6468 53.6359C74.8004 49.8964 72.8772 44.8747 72.8772 38.7845C72.7703 36.0066 73.3046 33.3354 74.1593 30.7712C75.1209 28.2069 76.6168 25.9632 78.4331 23.9331C82.1727 20.0867 86.9807 18.0566 93.0709 18.0566C99.161 18.0566 104.076 19.9798 107.709 23.7194C109.525 25.6426 110.914 27.8864 111.769 30.3438C112.73 32.8012 113.158 35.4723 113.051 38.1435C113.051 39.2119 112.944 40.1735 112.944 41.2419C112.944 41.5625 112.837 41.7762 112.623 41.883C112.41 42.0967 112.196 42.2036 111.876 42.2036H84.5233C85.378 46.691 88.5834 48.9348 94.0324 48.9348C97.3446 48.9348 99.8021 47.8663 101.298 45.6226C101.405 45.4089 101.618 45.302 101.832 45.1952C102.046 45.0884 102.259 45.0884 102.473 45.1952L111.234 47.7595C111.341 47.7595 111.555 47.8663 111.662 47.9732C111.769 48.08 111.876 48.1869 111.982 48.4005C112.089 48.5074 112.089 48.7211 112.089 48.8279C112.089 48.9348 111.982 49.1485 111.982 49.2553C110.487 51.8196 108.35 54.0633 105.892 55.5591C102.153 58.1234 98.0926 59.2987 93.8188 59.2987ZM101.405 34.9381C101.298 34.0834 100.977 33.1217 100.55 32.267C100.123 31.4122 99.4815 30.7712 98.8405 30.1301C97.2378 28.7411 95.1009 28.1 93.0709 28.2069C90.934 28.1 88.9039 28.848 87.3012 30.1301C85.9123 31.3054 84.9506 33.0149 84.6301 34.8313L101.405 34.9381Z" fill="white"/>
<path d="M136.129 59.1917C133.672 59.1917 131.215 58.7644 128.971 57.6959C126.727 56.6275 124.697 55.1316 122.988 53.3153C119.462 49.2552 117.645 44.0198 117.645 38.5707C117.645 33.1216 119.568 27.9931 122.988 23.8261C124.697 21.9029 126.727 20.4071 128.971 19.4455C131.215 18.3771 133.672 17.9497 136.129 17.9497C139.442 17.8428 142.754 18.9113 145.425 21.0482C145.532 21.155 145.745 21.2619 145.959 21.2619C146.173 21.2619 146.387 21.2619 146.493 21.155C146.707 21.0482 146.814 20.9413 146.921 20.7276C147.028 20.6208 147.028 20.3003 147.028 20.1934C147.028 19.8729 147.134 19.6592 147.348 19.4455C147.562 19.2318 147.775 19.125 148.096 19.125H158.033C158.353 19.125 158.567 19.2318 158.781 19.4455C158.994 19.6592 159.101 19.8729 159.101 20.1934V57.0549C159.101 57.3754 158.994 57.5891 158.781 57.8028C158.567 58.0165 158.353 58.1233 158.033 58.1233H148.096C147.775 58.1233 147.562 58.0165 147.348 57.8028C147.134 57.5891 147.028 57.3754 147.028 57.0549C147.028 56.8412 146.921 56.6275 146.921 56.5206C146.814 56.3069 146.707 56.2001 146.493 56.0933C146.28 55.9864 146.066 55.9864 145.959 55.9864C145.852 55.9864 145.532 56.0932 145.425 56.2001C142.861 58.2301 139.548 59.2986 136.129 59.1917ZM138.373 48.4004C139.548 48.4004 140.831 48.1867 141.899 47.7594C143.074 47.332 144.036 46.5841 144.891 45.6225C145.745 44.6609 146.387 43.5924 146.921 42.4171C147.348 41.2418 147.562 39.9597 147.562 38.6776C147.669 37.3954 147.455 36.1133 146.921 34.938C146.493 33.7627 145.745 32.6943 144.891 31.7326C144.036 30.8779 142.967 30.13 141.899 29.7026C140.724 29.2752 139.548 29.0615 138.373 29.0615C137.198 29.0615 136.023 29.2752 134.847 29.7026C133.779 30.13 132.71 30.8779 131.962 31.7326C131.108 32.6943 130.467 33.7627 130.039 34.938C129.612 36.1133 129.398 37.3954 129.505 38.6776C129.398 39.9597 129.612 41.2418 130.039 42.4171C130.467 43.5924 131.108 44.7677 131.962 45.6225C132.817 46.4772 133.779 47.2251 134.847 47.6525C136.023 48.0799 137.198 48.2936 138.373 48.4004Z" fill="white"/>
<path d="M192.971 55.8797C193.078 56.2002 193.078 56.4139 192.864 56.7345C192.757 56.9482 192.543 57.1618 192.223 57.2687C189.552 58.2303 186.667 58.7645 183.782 58.7645C179.295 58.7645 175.876 57.4824 173.632 54.8113C171.388 52.1401 170.213 48.6143 170.213 44.0199V30.878C170.213 30.5575 170.106 30.3438 169.892 30.1301C169.679 29.9164 169.465 29.8096 169.144 29.8096H165.405C165.084 29.8096 164.871 29.7028 164.657 29.4891C164.443 29.2754 164.336 29.0617 164.336 28.7411V20.1936C164.336 19.873 164.443 19.6593 164.657 19.4457C164.871 19.232 165.084 19.1251 165.405 19.1251H169.144C169.465 19.1251 169.679 19.0183 169.892 18.8046C170.106 18.5909 170.213 18.3772 170.213 18.0567V8.01327C170.213 7.69274 170.32 7.47905 170.533 7.26536C170.747 7.05167 170.961 6.94482 171.281 6.94482H181.218C181.538 6.94482 181.752 7.05167 181.966 7.26536C182.179 7.47905 182.286 7.69274 182.286 8.01327V18.0567C182.286 18.3772 182.393 18.5909 182.607 18.8046C182.821 19.0183 183.034 19.1251 183.355 19.1251H191.475C191.796 19.1251 192.009 19.232 192.223 19.4457C192.437 19.6593 192.543 19.873 192.543 20.1936V28.6343C192.543 28.7411 192.543 28.9548 192.437 29.0617C192.33 29.1685 192.33 29.2754 192.223 29.3822C192.116 29.4891 192.009 29.5959 191.902 29.5959C191.796 29.7028 191.582 29.7028 191.475 29.7028H183.355C183.034 29.7028 182.821 29.8096 182.607 30.0233C182.393 30.237 182.286 30.4507 182.286 30.7712V43.9131C182.286 46.6911 183.568 47.9732 186.24 47.9732C187.308 47.9732 188.27 47.7595 189.231 47.439C189.338 47.3321 189.552 47.3321 189.659 47.3321C189.765 47.3321 189.979 47.3321 190.086 47.439C190.193 47.5458 190.3 47.5458 190.407 47.7595C190.513 47.8664 190.513 47.9732 190.62 48.1869L192.971 55.8797Z" fill="white"/>
<path d="M32.9173 56.3074C32.3831 56.0937 31.8488 55.9868 31.3146 56.0937C30.0325 56.0937 28.7503 56.2005 27.4682 56.4142C26.0792 56.6279 24.6902 56.9484 23.3013 57.3758C22.126 57.6963 20.9507 58.1237 19.8822 58.6579C19.1343 58.9785 17.959 59.6195 18.7069 60.3675C19.1343 60.688 19.6685 60.7948 20.3096 60.7948C20.9507 60.9017 21.5917 60.9017 22.2328 60.7948C23.515 60.688 24.7971 60.4743 25.9724 60.2606C27.2545 60.0469 28.5367 59.7264 29.8188 59.299C30.4599 59.0853 31.1009 58.8716 31.6351 58.6579C32.1694 58.4443 32.7036 58.1237 33.0241 57.6963C33.131 57.5895 33.131 57.4827 33.131 57.3758C33.131 57.269 33.131 57.1621 33.131 57.0553C33.131 56.9484 33.0241 56.8416 33.0241 56.7347C33.131 56.4142 33.0241 56.3074 32.9173 56.3074ZM32.1694 57.3758C31.6351 57.6963 31.1009 57.91 30.5667 58.0169C29.4983 58.4443 28.4298 58.7648 27.3614 58.9785C26.2929 59.299 25.2245 59.5127 24.156 59.6195C23.0876 59.7264 22.0191 59.8332 21.0575 59.8332C20.737 59.8332 20.4165 59.8332 20.2028 59.7264L19.8822 59.6195L19.6685 59.5127H19.7754L20.0959 59.299C20.4165 59.1922 20.6301 58.9785 20.9507 58.8716C21.4849 58.6579 22.0191 58.3374 22.6602 58.1237L22.8739 58.0169C23.8355 57.6963 24.9039 57.3758 25.9724 57.1621C28.0024 56.6279 30.1393 56.5211 32.2762 56.6279C32.3831 56.6279 32.9173 56.6279 32.9173 56.7347C32.5968 57.1621 32.1694 57.3758 32.1694 57.3758Z" fill="white"/>
<path d="M19.0275 59.6196L19.4549 59.7264H19.5617L19.8822 59.5127C20.2028 59.4059 20.4165 59.1922 20.737 59.0853C21.2712 58.8716 21.8054 58.5511 22.4465 58.3374L22.6602 58.2306C23.6218 57.91 24.6902 57.5895 25.7587 57.3758C27.7887 56.8416 29.9256 56.7347 32.0625 56.8416C32.2762 56.8416 32.4899 56.8416 32.5968 56.9484L32.7036 56.8416H32.8104L33.0241 56.7347L33.3447 56.6279C33.2378 56.5211 33.2378 56.4142 33.0241 56.3074C32.4899 56.0937 31.9557 55.9868 31.4215 56.0937C30.1393 56.0937 28.8572 56.2005 27.5751 56.4142C26.1861 56.6279 24.7971 56.9484 23.4081 57.3758C22.2328 57.6963 21.0575 58.1237 19.9891 58.658C19.4549 58.7648 19.0275 59.1922 18.6001 59.6196C18.7069 59.5127 18.8138 59.6196 19.0275 59.6196Z" fill="white"/>
<path d="M9.62516 8.86789L4.81715 5.34201C3.32132 4.16672 0.863892 5.23517 0.863892 7.05153V14.1033C0.863892 16.0265 3.32132 16.9881 4.92399 15.8128L9.73201 12.2869C10.0525 12.0732 10.2662 11.8595 10.3731 11.539C10.4799 11.2185 10.5868 10.8979 10.5868 10.5774C10.5868 10.2569 10.4799 9.93634 10.3731 9.6158C10.1594 9.29527 9.94569 9.08158 9.62516 8.86789Z" fill="white"/>
<path d="M37.939 8.86789L42.747 5.34201C44.3497 4.16672 46.8071 5.23517 46.8071 7.05153V14.1033C46.8071 16.0265 44.3497 16.9881 42.747 15.8128L37.939 12.2869C37.6185 12.0732 37.4048 11.8595 37.2979 11.539C37.1911 11.2185 37.0842 10.8979 37.0842 10.5774C37.0842 10.2569 37.1911 9.93634 37.2979 9.6158C37.4048 9.29527 37.6185 9.08158 37.939 8.86789Z" fill="white"/>
<path d="M32.5968 4.91504H14.9674C13.5784 5.02188 12.1894 5.55611 11.121 6.62455C10.1594 7.693 9.51831 9.08198 9.51831 10.5778C9.51831 12.0736 10.0525 13.4626 11.121 14.5311C12.0826 15.5995 13.4716 16.2406 14.9674 16.2406H17.5317V36.7548C17.5317 37.6095 17.6385 38.4643 17.959 39.2122C18.2796 40.067 18.707 40.708 19.2412 41.3491C19.8822 41.9902 20.5233 42.4175 21.2712 42.7381C22.0191 43.0586 22.8739 43.2723 23.7287 43.2723C24.5834 43.2723 25.4382 43.0586 26.1861 42.7381C26.934 42.4175 27.6819 41.8833 28.2161 41.3491C28.8572 40.708 29.2846 39.9601 29.4983 39.2122C29.8188 38.3574 29.9257 37.5027 29.9257 36.7548V16.2406H32.4899C33.8789 16.1337 35.2679 15.4927 36.2295 14.4242C37.1911 13.3558 37.7253 11.9668 37.7253 10.471C37.7253 9.08198 37.1911 7.58616 36.2295 6.51771C35.3747 5.66295 33.9858 4.91504 32.5968 4.91504Z" fill="white"/>
<path d="M23.8355 58.1233C27.2546 58.1233 30.0325 55.2385 30.0325 51.8195C30.0325 48.2936 27.2546 45.5156 23.8355 45.5156C20.4165 45.5156 17.6385 48.4004 17.6385 51.8195C17.6385 55.2385 20.3097 58.1233 23.8355 58.1233Z" fill="white"/>
<path d="M41.1443 45.9431C40.717 45.8362 40.2896 45.7294 39.8622 45.8362C39.328 45.8362 38.9006 45.8362 38.3664 45.8362C37.4048 45.9431 36.3363 46.0499 35.3747 46.1568C34.52 46.2636 33.6652 46.3705 32.8104 46.5842C32.3831 46.691 31.9557 46.7979 31.5283 46.9047C31.1009 47.0115 30.5667 47.2252 30.0325 47.3321C29.8188 47.4389 29.8188 47.6526 29.9256 47.6526C30.6735 47.5458 31.3146 47.5458 31.9557 47.5458L33.9857 47.3321C35.3747 47.2252 36.8705 47.2252 38.2595 47.2252C38.7937 47.2252 39.328 47.3321 39.7553 47.3321C38.6869 47.8663 37.5116 48.2937 36.4432 48.7211C30.5667 50.7511 24.5834 52.1401 18.3864 52.9948C16.6769 53.2085 14.8605 53.4222 13.151 53.6359L10.5867 53.8496H10.2662L11.6552 53.1017C12.2962 52.7812 12.9373 52.4606 13.5784 52.1401C14.2195 51.8196 15.0742 51.3922 16.0358 50.9648C16.1427 50.9648 16.1427 50.8579 16.0358 50.8579C15.0742 51.0716 14.2195 51.1785 13.3647 51.2853C12.5099 51.499 11.762 51.7127 11.121 51.9264C10.4799 52.1401 9.73198 52.4606 9.09091 52.6743C8.44984 52.888 7.80877 53.2085 7.38139 53.7428C7.27455 53.8496 7.06086 53.9564 6.95401 54.0633C6.84717 54.1701 6.84717 54.1701 6.84717 54.277C6.84717 54.3838 6.84717 54.3838 6.84717 54.4907C6.84717 54.5975 6.84717 54.5975 6.84717 54.7044C6.84717 54.8112 6.95401 54.8112 6.95401 54.9181C7.59508 55.3454 8.34299 55.5591 9.19775 55.5591C10.0525 55.666 11.0141 55.666 11.8689 55.5591C13.6852 55.4523 15.6084 55.2386 17.4248 54.9181C20.3096 54.3838 23.1944 53.8496 26.0792 53.1017C28.8572 52.5675 31.742 51.9264 34.52 51.1785C36.2295 50.7511 37.8321 50.2169 39.4348 49.469C40.1827 49.1484 40.9306 48.8279 41.5717 48.2937C41.7854 48.1868 41.8922 47.9731 41.9991 47.7595C42.1059 47.5458 42.1059 47.3321 42.1059 47.1184C42.1059 46.9047 41.9991 46.691 41.8922 46.4773C41.5717 46.1568 41.358 45.9431 41.1443 45.9431Z" fill="white"/>
<path d="M7.80885 53.7431C8.77045 53.85 9.73205 53.85 10.6937 53.7431C11.3347 53.7431 12.0826 53.6363 12.7237 53.5294L10.6937 53.6363H10.2663L11.6553 52.8884C12.2963 52.5678 12.9374 52.2473 13.5785 52.0336C14.2195 51.7131 15.0743 51.2857 16.0359 50.8583C16.1427 50.8583 16.1427 50.7515 16.0359 50.7515C15.0743 50.9652 14.2195 51.072 13.3648 51.1788C12.51 51.3925 11.7621 51.6062 11.121 51.8199C10.48 52.0336 9.73205 52.3541 9.09099 52.5678C8.44992 52.7815 7.80885 53.102 7.38147 53.6363L7.80885 53.7431Z" fill="white"/>
<path d="M39.5417 47.2253L41.0375 46.7979L41.5717 46.5842C41.6786 46.5842 41.6786 46.4774 41.7854 46.4774C41.6786 46.2637 41.358 46.05 41.1443 46.05C40.717 45.9432 40.2896 45.8363 39.8622 45.9432C39.328 45.9432 38.9006 45.9432 38.3664 45.9432C37.4048 46.05 36.3363 46.1569 35.3747 46.2637C34.52 46.3706 33.6652 46.4774 32.8105 46.6911C32.3831 46.7979 31.9557 46.9048 31.5283 47.0116C31.1009 47.1185 30.5667 47.3322 30.0325 47.439C29.8188 47.5459 29.8188 47.7595 29.9257 47.7595C30.6736 47.6527 31.3146 47.6527 31.9557 47.6527L33.9857 47.439C35.3747 47.3322 36.8706 47.3322 38.2595 47.3322C38.5801 47.1185 39.1143 47.2253 39.5417 47.2253Z" fill="white"/>
<path d="M29.2846 62.7178C29.071 62.2905 28.5367 62.2905 28.2162 62.2905C27.7888 62.1836 27.3614 62.2905 27.0409 62.5041C26.8272 62.611 26.6135 62.611 26.5067 62.7178C26.0793 62.9315 25.5451 63.1452 25.4382 63.5726C25.4382 63.6794 25.4382 63.7863 25.4382 63.8931C25.4382 64 25.4382 64.1068 25.5451 64.1068C25.6519 64.2137 25.6519 64.2137 25.7588 64.3205C25.8656 64.4273 25.8656 64.4273 25.9725 64.4273C26.3998 64.5342 26.9341 64.4273 27.3614 64.3205C27.8957 64.2137 28.323 64 28.7504 63.6794C29.071 63.4657 29.4983 63.1452 29.2846 62.7178ZM28.1094 63.1452C27.7888 63.2521 27.5751 63.3589 27.2546 63.4657C26.9341 63.5726 26.7204 63.5726 26.3998 63.5726C26.293 63.5726 26.1861 63.5726 25.9725 63.5726C25.8656 63.5726 25.8656 63.5726 25.9725 63.4657C26.1861 63.2521 26.5067 63.0384 26.7204 62.9315L27.0409 62.8247C27.2546 62.8247 27.3614 62.8247 27.5751 62.8247H28.0025C28.1094 62.8247 28.323 62.9315 28.4299 62.9315C28.323 63.0384 28.2162 63.1452 28.1094 63.1452Z" fill="white"/>
<path d="M25.7587 63.4657H26.0793C26.293 63.2521 26.5066 63.1452 26.8272 63.0384L27.1477 62.9315C27.3614 62.9315 27.4682 62.9315 27.6819 62.9315H28.1093H28.2162L28.7504 62.7178L29.1778 62.5041C28.8572 62.2905 28.5367 62.1836 28.2162 62.2905C27.7888 62.1836 27.3614 62.2905 27.0409 62.5041C26.8272 62.611 26.6135 62.611 26.5066 62.7178C26.0793 62.8247 25.7587 63.1452 25.545 63.4657C25.545 63.4657 25.6519 63.4657 25.7587 63.4657Z" fill="white"/>
<path d="M201.946 32.8015C201.946 27.7798 203.014 23.2923 205.258 19.2322C207.502 15.2789 210.493 12.1804 214.34 9.9367C218.293 7.69296 222.781 6.62451 227.695 6.62451C233.786 6.62451 239.021 8.22718 243.402 11.4325C247.675 14.6379 250.667 19.0185 252.056 24.5744H238.273C237.205 22.4375 235.816 20.8349 233.892 19.6596C232.076 18.4843 229.939 17.9501 227.589 17.9501C223.742 17.9501 220.644 19.339 218.293 22.0102C215.942 24.6813 214.767 28.314 214.767 32.8015C214.767 37.2889 215.942 40.8148 218.293 43.5928C220.644 46.2639 223.849 47.6529 227.589 47.6529C229.939 47.6529 232.076 47.1187 233.892 45.9434C235.816 44.7681 237.205 43.1654 238.273 41.0285H252.056C250.56 46.5844 247.675 50.9651 243.402 54.1704C239.021 57.2689 233.892 58.8716 227.695 58.8716C222.674 58.8716 218.293 57.8031 214.34 55.5594C210.493 53.3157 207.395 50.2172 205.258 46.2639C203.014 42.3106 201.946 37.8232 201.946 32.8015Z" fill="white"/>
<path d="M276.844 59.0853C272.891 59.0853 269.258 58.2305 266.053 56.521C262.847 54.8115 260.39 52.3541 258.573 49.2556C256.757 46.0502 255.902 42.4175 255.902 38.1437C255.902 33.9768 256.864 30.2372 258.68 27.1387C260.497 23.9334 263.061 21.4759 266.266 19.7664C269.472 18.0569 273.104 17.2021 277.058 17.2021C281.011 17.2021 284.644 18.0569 287.849 19.7664C291.054 21.4759 293.619 23.9334 295.435 27.1387C297.251 30.3441 298.213 33.9768 298.213 38.1437C298.213 42.3107 297.251 46.0502 295.328 49.2556C293.512 52.4609 290.947 54.8115 287.635 56.521C284.43 58.2305 280.797 59.0853 276.844 59.0853ZM276.844 48.294C279.194 48.294 281.225 47.4392 282.934 45.6228C284.644 43.9133 285.498 41.3491 285.498 38.1437C285.498 34.9384 284.644 32.3741 283.041 30.6646C281.438 28.9551 279.408 27.9935 277.058 27.9935C274.6 27.9935 272.57 28.8482 270.967 30.6646C269.365 32.3741 268.51 34.8315 268.51 38.1437C268.51 41.3491 269.258 43.9133 270.861 45.6228C272.463 47.4392 274.493 48.294 276.844 48.294Z" fill="white"/>
<path d="M309.645 13.4624C307.401 13.4624 305.692 12.8214 304.196 11.5392C302.807 10.2571 302.166 8.65442 302.166 6.73122C302.166 4.80801 302.807 3.20534 304.196 1.92321C305.585 0.641068 307.401 0 309.645 0C311.782 0 313.492 0.641068 314.881 1.92321C316.27 3.20534 317.017 4.80801 317.017 6.73122C317.017 8.65442 316.376 10.2571 314.881 11.5392C313.492 12.8214 311.782 13.4624 309.645 13.4624ZM315.842 17.7362V58.5509H303.341V17.7362H315.842Z" fill="white"/>
<path d="M348.323 17.3091C353.131 17.3091 356.87 18.9118 359.755 22.0103C362.64 25.1087 364.029 29.2757 364.029 34.7248V58.5511H351.635V36.4343C351.635 33.6563 350.994 31.6263 349.498 30.1305C348.109 28.6346 346.186 27.8867 343.835 27.8867C341.485 27.8867 339.562 28.6346 338.173 30.1305C336.784 31.6263 336.036 33.7632 336.036 36.4343V58.5511H323.535V17.7365H336.036V23.1855C337.318 21.3692 339.027 19.9802 341.164 18.9118C343.194 17.8433 345.652 17.3091 348.323 17.3091Z" fill="white"/>
</g>
</g>
<defs>
<clipPath id="clip0_373_1093">
<rect width="363.272" height="64" fill="white" transform="translate(0.863892)"/>
</clipPath>
</defs>
</svg>
