<svg width="30" height="30" viewBox="0 0 30 30" fill="none" xmlns="http://www.w3.org/2000/svg">
<path id="Vector" d="M14.9998 0.369629C6.92394 0.369629 0.369629 6.92394 0.369629 14.9998C0.369629 23.0756 6.92394 29.6299 14.9998 29.6299C23.0756 29.6299 29.6299 23.0756 29.6299 14.9998C29.6299 6.92394 23.0756 0.369629 14.9998 0.369629ZM21.7882 10.3181C21.5687 12.6297 20.6178 18.2477 20.135 20.8372C19.9302 21.9345 19.5205 22.3002 19.1401 22.3441C18.2916 22.4173 17.6478 21.7882 16.8286 21.2469C15.5411 20.3983 14.8096 19.8716 13.566 19.0523C12.1176 18.1014 13.054 17.5747 13.8879 16.7261C14.1073 16.5067 17.8527 13.0979 17.9258 12.7906C17.936 12.7441 17.9346 12.6958 17.9219 12.6499C17.9091 12.604 17.8854 12.5619 17.8527 12.5273C17.7649 12.4541 17.6478 12.4834 17.5454 12.498C17.4138 12.5273 15.3655 13.8879 11.3715 16.5798C10.7863 16.9749 10.2596 17.1797 9.79145 17.1651C9.26476 17.1504 8.26991 16.8724 7.52378 16.6237C6.60208 16.3311 5.8852 16.1702 5.94372 15.6581C5.97298 15.3948 6.33873 15.1315 7.02635 14.8535C11.2984 12.9955 14.1366 11.7665 15.5557 11.1813C19.6229 9.48422 20.4568 9.19161 21.0128 9.19161C21.1298 9.19161 21.4078 9.22087 21.5834 9.36718C21.7297 9.48422 21.7736 9.64515 21.7882 9.76219C21.7736 9.84997 21.8028 10.1133 21.7882 10.3181Z" fill="url(#paint0_linear_373_1975)"/>
<defs>
<linearGradient id="paint0_linear_373_1975" x1="31.7401" y1="-1.67015" x2="-4.97601" y2="33.6392" gradientUnits="userSpaceOnUse">
<stop offset="0.176452" stop-color="#8D31E4"/>
<stop offset="0.688983" stop-color="#6260E1"/>
</linearGradient>
</defs>
</svg>
